<svg width="104" height="104" viewBox="0 0 104 104" fill="none" xmlns="http://www.w3.org/2000/svg">
<path d="M94.25 6.5H9.75C4.36719 6.5 0 10.8672 0 16.25V87.75C0 93.1328 4.36719 97.5 9.75 97.5H94.25C99.6328 97.5 104 93.1328 104 87.75V16.25C104 10.8672 99.6328 6.5 94.25 6.5ZM77.2687 65.5078C78.2438 66.4828 78.2438 68.0672 77.2687 69.0422L69.0422 77.2687C68.0672 78.2438 66.4828 78.2438 65.5078 77.2687L52 63.6391L38.4922 77.2687C37.5172 78.2438 35.9328 78.2438 34.9578 77.2687L26.7313 69.0422C25.7563 68.0672 25.7563 66.4828 26.7313 65.5078L40.3609 52L26.7313 38.4922C25.7563 37.5172 25.7563 35.9328 26.7313 34.9578L34.9578 26.7313C35.9328 25.7563 37.5172 25.7563 38.4922 26.7313L52 40.3609L65.5078 26.7313C66.4828 25.7563 68.0672 25.7563 69.0422 26.7313L77.2687 34.9578C78.2438 35.9328 78.2438 37.5172 77.2687 38.4922L63.6391 52L77.2687 65.5078Z" fill="#EC2C2C"/>
</svg>
